<?xml version="1.0" standalone="no"?>
<!DOCTYPE svg PUBLIC "-//W3C//DTD SVG 20010904//EN"
 "http://www.w3.org/TR/2001/REC-SVG-20010904/DTD/svg10.dtd">
<svg version="1.0" xmlns="http://www.w3.org/2000/svg"
 width="500.000000pt" height="500.000000pt" viewBox="0 0 500.000000 500.000000"
 preserveAspectRatio="xMidYMid meet">
<metadata>
Created by potrace 1.15, written by Peter Selinger 2001-2017
</metadata>
<g transform="translate(0.000000,500.000000) scale(0.100000,-0.100000)"
fill="#000000" stroke="none">
<path d="M1936 3979 l-26 -20 0 -151 c0 -150 0 -151 20 -133 11 10 42 20 70
23 l50 5 0 124 c0 118 -1 125 -25 148 -30 30 -54 31 -89 4z m58 -15 c22 -8 20
-51 -2 -63 -37 -20 -70 27 -40 57 14 14 20 14 42 6z"/>
<path d="M3059 3981 c-24 -19 -24 -22 -30 -268 -3 -137 -11 -263 -17 -280 -10
-31 -9 -33 13 -33 38 0 74 -21 83 -49 l10 -26 12 30 c31 77 40 163 40 382 l0
222 -26 20 c-33 26 -55 26 -85 2z m67 -25 c15 -12 17 -18 8 -33 -15 -24 -58
-24 -62 0 -4 18 14 47 27 47 4 0 16 -6 27 -14z"/>
<path d="M1910 3560 c1 -120 60 -279 145 -391 40 -51 150 -147 188 -163 8 -3
7 -8 -4 -15 -91 -58 -186 -152 -231 -228 l-16 -28 81 4 82 3 55 52 c160 147
370 177 554 78 124 -66 234 -221 259 -365 l11 -67 50 0 c32 0 56 -6 68 -17 17
-15 18 -14 18 23 -1 117 -68 292 -153 395 -40 49 -141 135 -179 153 -11 5 -11
7 0 12 64 30 202 167 240 239 10 19 7 20 -71 17 l-81 -4 -59 -54 c-127 -118
-284 -160 -442 -119 -182 48 -330 211 -367 408 l-13 67 -52 0 c-42 0 -55 4
-67 22 -16 22 -16 21 -16 -22z m654 -536 c20 -19 20 -38 1 -54 -34 -28 -80 24
-48 55 18 19 28 19 47 -1z"/>
<path d="M1941 2610 c-22 -69 -25 -95 -29 -321 l-4 -246 27 -22 c34 -26 56
-27 86 -2 24 19 24 22 30 268 3 156 10 258 17 276 16 38 16 37 -17 37 -35 0
-79 33 -83 63 -2 14 -12 -5 -27 -53z m62 -522 c15 -23 1 -48 -28 -48 -14 0
-25 2 -25 4 0 2 -3 11 -6 19 -6 16 23 50 39 44 6 -2 15 -10 20 -19z"/>
<path d="M3148 2324 c-9 -9 -39 -19 -67 -22 l-51 -5 0 -124 c0 -118 1 -125 25
-148 29 -30 64 -32 93 -5 21 20 22 29 22 170 0 83 -1 150 -3 150 -1 0 -10 -7
-19 -16z m-20 -226 c18 -18 14 -46 -9 -58 -26 -14 -49 3 -49 35 0 32 35 46 58
23z"/>
<path d="M2447 1956 c-49 -18 -67 -34 -84 -73 -36 -87 6 -186 88 -206 35 -9
95 10 112 34 14 20 15 19 21 -6 5 -21 12 -25 41 -25 l35 0 0 80 0 80 -90 0
c-89 0 -90 0 -90 -25 0 -22 4 -25 40 -25 45 0 52 -15 15 -32 -53 -24 -100 30
-79 91 11 30 37 38 70 21 21 -12 89 -9 102 4 7 8 -26 54 -51 70 -34 22 -88 27
-130 12z"/>
<path d="M1720 1820 l0 -140 45 0 45 0 0 78 c1 71 2 76 16 57 9 -11 29 -46 45
-77 l29 -58 55 0 55 0 0 140 0 140 -45 0 -45 0 0 -82 -1 -83 -42 80 -42 80
-57 3 -58 3 0 -141z"/>
<path d="M2078 1820 l-46 -140 50 0 c41 0 51 3 55 20 4 16 14 20 49 20 37 0
44 -3 44 -20 0 -18 7 -20 54 -20 l54 0 -46 140 -47 140 -60 0 -60 0 -47 -140z
m126 -2 c6 -25 4 -28 -19 -28 -20 0 -25 4 -21 18 3 9 8 30 12 46 6 26 8 27 14
10 4 -10 10 -31 14 -46z"/>
<path d="M2765 1948 c-17 -46 -85 -253 -85 -260 0 -4 22 -8 49 -8 40 0 50 3
54 20 4 16 14 20 45 20 32 0 42 -4 47 -20 5 -16 15 -20 56 -20 27 0 49 4 49 8
0 4 -20 66 -43 137 l-44 130 -61 3 c-44 2 -64 -1 -67 -10z m75 -87 c0 -5 3
-23 6 -40 6 -28 4 -31 -18 -31 -24 0 -25 1 -15 40 10 35 27 55 27 31z"/>
<path d="M3010 1820 l0 -140 44 0 45 0 3 53 3 52 35 0 35 0 3 -52 3 -53 50 0
49 0 0 140 0 140 -50 0 -50 0 0 -50 0 -50 -40 0 -40 0 0 50 0 50 -45 0 -45 0
0 -140z"/>
<path d="M2030 1445 l0 -75 53 2 52 2 -47 3 c-45 4 -48 6 -48 33 0 27 3 29 43
33 l42 4 -42 1 c-40 2 -43 4 -43 31 0 28 2 30 48 34 l47 3 -52 2 -53 2 0 -75z"/>
<path d="M2651 1498 c0 -9 -7 -19 -13 -21 -10 -4 -10 -6 0 -6 8 -1 12 -17 12
-45 0 -25 3 -47 8 -49 4 -3 5 17 4 43 -4 44 -2 49 20 53 22 4 22 4 1 6 -12 0
-24 9 -26 19 -4 15 -5 15 -6 0z"/>
<path d="M2188 1473 c6 -2 18 -2 25 0 6 3 1 5 -13 5 -14 0 -19 -2 -12 -5z"/>
<path d="M2435 1473 c11 -3 27 -10 35 -17 13 -10 13 -9 1 7 -7 9 -23 16 -35
16 -20 -1 -20 -2 -1 -6z"/>
<path d="M2519 1463 c-13 -16 -12 -17 3 -5 9 8 27 12 40 10 19 -2 24 -10 28
-47 3 -25 11 -46 18 -47 7 -1 8 0 2 3 -5 2 -10 21 -10 42 0 20 -5 42 -12 49
-18 18 -53 15 -69 -5z"/>
<path d="M2769 1463 c-13 -16 -12 -17 4 -4 11 9 29 11 50 7 23 -4 28 -3 17 4
-23 15 -56 12 -71 -7z"/>
<path d="M2918 1473 c6 -2 18 -2 25 0 6 3 1 5 -13 5 -14 0 -19 -2 -12 -5z"/>
<path d="M2155 1459 c-4 -6 -5 -12 -2 -15 2 -3 7 2 10 11 7 17 1 20 -8 4z"/>
<path d="M2236 1457 c3 -10 9 -15 12 -12 3 3 0 11 -7 18 -10 9 -11 8 -5 -6z"/>
<path d="M2358 1428 c-3 -24 -1 -47 3 -52 5 -6 9 13 9 42 0 63 -6 68 -12 10z"/>
<path d="M2880 1420 c0 -29 2 -51 4 -49 8 8 10 88 3 95 -4 4 -7 -17 -7 -46z"/>
<path d="M2751 1424 c0 -11 3 -14 6 -6 3 7 2 16 -1 19 -3 4 -6 -2 -5 -13z"/>
<path d="M2548 1423 c7 -3 16 -2 19 1 4 3 -2 6 -13 5 -11 0 -14 -3 -6 -6z"/>
<path d="M2391 1409 c-1 -19 26 -45 36 -35 3 3 1 6 -6 6 -6 0 -16 10 -21 23
-6 15 -9 17 -9 6z"/>
<path d="M2851 1408 c-1 -9 -9 -22 -18 -27 -10 -6 -13 -11 -7 -11 17 0 37 27
31 42 -4 8 -6 7 -6 -4z"/>
<path d="M2150 1401 c0 -10 29 -36 34 -30 1 2 -6 12 -16 22 -10 9 -18 13 -18
8z"/>
<path d="M2228 1388 c-10 -10 -14 -18 -9 -18 10 0 36 29 30 34 -2 1 -12 -6
-21 -16z"/>
<path d="M2466 1385 c-11 -8 -15 -15 -9 -15 6 0 16 7 23 15 16 19 11 19 -14 0z"/>
<path d="M2772 1384 c10 -10 20 -16 22 -13 3 3 -5 11 -17 18 -21 13 -21 12 -5
-5z"/>
</g>
</svg>
